<svg xmlns="http://www.w3.org/2000/svg" width="1200" height="630" viewBox="0 0 1200 630">
  <defs>
    <linearGradient id="bg" x1="0" y1="0" x2="1" y2="1">
      <stop offset="0" stop-color="#111418"/>
      <stop offset="1" stop-color="#0b0d10"/>
    </linearGradient>
    <radialGradient id="glow" cx="0.82" cy="0.2" r="0.6">
      <stop offset="0" stop-color="#c9631d" stop-opacity="0.35"/>
      <stop offset="1" stop-color="#c9631d" stop-opacity="0"/>
    </radialGradient>
  </defs>
  <rect width="1200" height="630" fill="url(#bg)"/>
  <rect width="1200" height="630" fill="url(#glow)"/>

  <!-- Logo mark -->
  <rect x="80" y="72" width="96" height="96" rx="22" fill="#c9631d"/>
  <g fill="none" stroke="#ffffff" stroke-width="7" stroke-linecap="round" stroke-linejoin="round" transform="translate(80 72) scale(0.1875)">
    <path d="M188 196 L146 268 L96 268 L146 354 Q158 372 180 372 L246 372"/>
    <path d="M256 150 Q276 116 314 138 L360 210"/>
    <path d="M332 372 L416 372 Q436 372 426 338 L406 302"/>
  </g>
  <text x="196" y="118" font-family="Arial, Helvetica, sans-serif" font-size="40" font-weight="800" fill="#ffffff">Canlar<tspan fill="#df7f38"> Metal</tspan></text>
  <text x="196" y="152" font-family="Arial, Helvetica, sans-serif" font-size="18" letter-spacing="3" fill="#6b7683">HURDA &amp; EŞYA ALIMI</text>

  <!-- Headline -->
  <text x="80" y="330" font-family="Arial, Helvetica, sans-serif" font-size="76" font-weight="800" fill="#ffffff">Hurdanız Yük Değil,</text>
  <text x="80" y="418" font-family="Arial, Helvetica, sans-serif" font-size="76" font-weight="800" fill="#df7f38">Değer.</text>

  <!-- Sub -->
  <text x="80" y="486" font-family="Arial, Helvetica, sans-serif" font-size="30" fill="#aeb6bf">Beyaz eşya · Hurda metal · İkinci el · Eşya tahliyesi</text>

  <!-- Footer chips -->
  <g font-family="Arial, Helvetica, sans-serif" font-size="24" font-weight="700" fill="#c9631d">
    <text x="80" y="560">İstanbul Anadolu Yakası</text>
    <text x="520" y="560" fill="#6b7683">·</text>
    <text x="548" y="560">Yerinde Tartım</text>
    <text x="820" y="560" fill="#6b7683">·</text>
    <text x="848" y="560">Peşin Nakit</text>
  </g>
</svg>
